<?xml version="1.0" encoding="UTF-8" standalone="no"?>
<!-- Created with Inkscape (http://www.inkscape.org/) -->

<svg
   xmlns:dc="http://purl.org/dc/elements/1.1/"
   xmlns:cc="http://creativecommons.org/ns#"
   xmlns:rdf="http://www.w3.org/1999/02/22-rdf-syntax-ns#"
   xmlns:svg="http://www.w3.org/2000/svg"
   xmlns="http://www.w3.org/2000/svg"
   xmlns:xlink="http://www.w3.org/1999/xlink"
   xmlns:sodipodi="http://sodipodi.sourceforge.net/DTD/sodipodi-0.dtd"
   xmlns:inkscape="http://www.inkscape.org/namespaces/inkscape"
   width="235.80083mm"
   height="89.433754mm"
   viewBox="0 0 835.51474 316.89125"
   id="svg2"
   version="1.1"
   inkscape:version="0.91 r13725"
   sodipodi:docname="deals.svg">
  <defs
     id="defs4">
    <linearGradient
       inkscape:collect="always"
       id="linearGradient4228">
      <stop
         style="stop-color:#a86528;stop-opacity:1"
         offset="0"
         id="stop4230" />
      <stop
         id="stop4247"
         offset="0.25"
         style="stop-color:#a86528;stop-opacity:1" />
      <stop
         style="stop-color:#ab6828;stop-opacity:1"
         offset="0.375"
         id="stop4251" />
      <stop
         id="stop4243"
         offset="0.5"
         style="stop-color:#bc7d48;stop-opacity:1" />
      <stop
         style="stop-color:#c68b5a;stop-opacity:1"
         offset="0.625"
         id="stop4249" />
      <stop
         style="stop-color:#ca905a;stop-opacity:1"
         offset="0.75"
         id="stop4245" />
      <stop
         style="stop-color:#be862c;stop-opacity:1"
         offset="1"
         id="stop4232" />
    </linearGradient>
    <linearGradient
       inkscape:collect="always"
       xlink:href="#linearGradient4228"
       id="linearGradient4234"
       x1="-656.14819"
       y1="284.04233"
       x2="-656.14819"
       y2="596.29272"
       gradientUnits="userSpaceOnUse"
       gradientTransform="translate(731.9209,604.5965)" />
  </defs>
  <sodipodi:namedview
     id="base"
     pagecolor="#ffffff"
     bordercolor="#666666"
     borderopacity="1.0"
     inkscape:pageopacity="0.0"
     inkscape:pageshadow="2"
     inkscape:zoom="0.7"
     inkscape:cx="448.49957"
     inkscape:cy="287.60825"
     inkscape:document-units="px"
     inkscape:current-layer="g4236"
     showgrid="false"
     inkscape:snap-bbox="true"
     inkscape:bbox-paths="true"
     inkscape:bbox-nodes="true"
     inkscape:snap-bbox-edge-midpoints="true"
     fit-margin-top="0"
     fit-margin-left="0"
     fit-margin-right="0"
     fit-margin-bottom="0"
     inkscape:window-width="1257"
     inkscape:window-height="519"
     inkscape:window-x="0"
     inkscape:window-y="919"
     inkscape:window-maximized="0"
     showguides="false"
     inkscape:guide-bbox="true"
     inkscape:object-paths="true"
     inkscape:snap-bbox-midpoints="true"
     inkscape:snap-intersection-paths="true"
     inkscape:object-nodes="true"
     inkscape:snap-smooth-nodes="true"
     inkscape:snap-page="true">
    <sodipodi:guide
       position="340.69956,775.43827"
       orientation="0,1"
       id="guide4272" />
    <sodipodi:guide
       position="353.88805,771.36222"
       orientation="-0.95837184,0.28552304"
       id="guide4274" />
    <sodipodi:guide
       position="358.88478,773.36249"
       orientation="0.95506073,-0.29641018"
       id="guide4276" />
    <sodipodi:guide
       position="348.84405,781.80843"
       orientation="0,1"
       id="guide4278" />
    <inkscape:grid
       type="xygrid"
       id="grid4280"
       originx="4.8381098"
       originy="588.95834" />
  </sodipodi:namedview>
  <metadata
     id="metadata7">
    <rdf:RDF>
      <cc:Work
         rdf:about="">
        <dc:format>image/svg+xml</dc:format>
        <dc:type
           rdf:resource="http://purl.org/dc/dcmitype/StillImage" />
        <dc:title></dc:title>
      </cc:Work>
    </rdf:RDF>
  </metadata>
  <g
     inkscape:label="Layer 1"
     inkscape:groupmode="layer"
     id="layer1"
     transform="translate(975.95352,-888.63884)">
    <g
       id="g4236"
       transform="translate(-622,0)">
      <path
         d="m 160.24512,888.63947 c -1.70922,0.01 -3.36547,0.13168 -4.74805,0.37305 -14.26989,2.4912 -26.39431,13.7132 -30.02929,27.79687 -1.34478,5.21034 -1.38366,10.92093 -0.10743,15.72852 0.72471,2.73015 2.87189,6.98825 4.69727,9.3164 3.77568,4.81566 9.37829,8.11007 15.76367,9.26563 17.77086,3.21601 36.91862,-10.54227 40.88867,-29.38086 0.71415,-3.38886 0.7811,-9.31025 0.14063,-12.31641 -2.12979,-9.99658 -9.02799,-17.37972 -18.63281,-19.93945 -2.12709,-0.56688 -5.12396,-0.85991 -7.97266,-0.84375 z m -0.64258,7.02148 c 2.1565,-5.3e-4 4.28141,0.22805 5.90039,0.68555 9.51706,2.6894 15.34458,11.04369 14.77344,21.17969 -0.18279,3.24403 -0.66754,5.4007 -1.91602,8.52734 -3.49563,8.75449 -11.67294,15.81348 -20.65429,17.82617 -9.52083,2.13359 -18.46929,-1.19638 -23.0586,-8.58203 -6.46044,-10.39695 -2.69626,-25.38138 8.50782,-33.87109 2.55885,-1.93894 7.34155,-4.28338 10.36132,-5.07813 1.7415,-0.45835 3.92944,-0.68696 6.08594,-0.6875 z M -8.592774,888.64142 c -2.84745,-0.0177 -5.85472,0.27006 -7.99024,0.82813 -3.04903,0.79677 -7.2618,2.90118 -9.67382,4.83203 -4.09582,3.27874 -7.49919,8.7804 -8.80665,14.23633 -0.77539,3.23568 -0.91079,8.72745 -0.29882,12.15039 2.68552,15.02084 15.50475,27.81119 30.5332,30.46484 3.30929,0.58434 9.44155,0.36859 12.54688,-0.44141 4.67139,-1.2185 9.53678,-4.06269 12.54296,-7.33007 3.05604,-3.32155 5.37491,-7.91914 6.33008,-12.55469 0.66254,-3.21555 0.6196,-8.95591 -0.0918,-12.38867 -3.05165,-14.72569 -15.55152,-26.84032 -30.36132,-29.42578 -1.37087,-0.23933 -3.022,-0.36045 -4.73047,-0.3711 z m 0.70898,7.05469 c 5.43449,0.0328 10.24978,1.58684 15.18555,4.90234 2.40097,1.61279 6.35015,5.57645 7.90625,7.93555 5.49768,8.33473 6.43926,17.19431 2.66016,25.02734 -2.487,5.15491 -7.40291,9.07045 -13.00196,10.35547 -10.06807,2.31071 -21.15629,-2.18903 -27.96289,-11.3457 -3.57333,-4.80707 -5.29128,-9.5536 -5.55078,-15.3418 -0.19323,-4.31008 0.42031,-7.3193 2.23242,-10.9414 1.65973,-3.31751 5.10684,-6.71225 8.48242,-8.35547 3.69664,-1.79951 5.77755,-2.26203 10.04883,-2.23633 z m 39.76953,41.47461 c -0.62592,-0.0472 -3.62045,1.76942 -4.99804,3.07226 -2.07171,1.95934 -3.0964,4.0343 -3.32227,6.72852 l -0.17383,2.07031 -2.6914,0.52735 c -7.2117,1.41426 -11.78057,5.71835 -12.88086,12.13476 -0.96546,5.63013 2.42352,12.41267 7.33008,14.66797 1.64247,0.75496 2.21291,0.85747 4.73828,0.85547 2.67612,-0.002 3.00999,-0.0718 4.94922,-1.04492 1.22913,-0.61676 2.12098,-1.26284 2.17968,-1.58008 0.0801,-0.43327 -0.0423,-0.50172 -0.63281,-0.35352 -1.11573,0.28003 -2.61413,-0.50396 -4.26953,-2.23437 -1.96101,-2.04984 -3.09748,-2.72656 -4.58203,-2.72656 -0.99774,0 -1.35699,0.17245 -2.02539,0.96679 l -0.8125,0.96485 -0.71485,-0.89063 c -0.39399,-0.48987 -0.98568,-1.60412 -1.31445,-2.47656 -1.68306,-4.46613 0.2943,-8.21926 5.69922,-10.81836 1.99824,-0.96092 2.56344,-1.09258 5.12109,-1.19531 4.49925,-0.18072 8.58254,1.13141 13.30664,4.27539 3.61989,2.40909 6.28583,5.2299 7.67969,8.125 2.51967,5.23344 2.88444,9.43937 1.23438,14.25 -0.53763,1.56744 -1.60447,4.17904 -2.36914,5.80469 l -1.38868,2.95507 -1.59375,-1.7539 c -2.0793,-2.29173 -4.96506,-6.55369 -5.64648,-8.33789 -0.46311,-1.2127 -0.49134,-1.66381 -0.20508,-3.20313 0.68184,-3.66634 2.72756,-6.92103 5.46875,-8.69726 0.82203,-0.53267 1.49606,-1.08202 1.4961,-1.21875 0,-0.13674 -0.48837,-0.78799 -1.08399,-1.44727 -1.40175,-1.55157 -2.90347,-2.02665 -5.01562,-1.58984 -1.30656,0.27021 -1.59309,0.24853 -1.81446,-0.13672 -0.65484,-1.13961 -2.35924,-2.70575 -3.64453,-3.34766 -1.7352,-0.86661 -4.60808,-1.13415 -6.7832,-0.63281 -1.88136,0.43364 -5.43707,2.07665 -6.66602,3.08008 l -0.85742,0.69922 2.08594,0.0195 c 3.8115,0.0349 7.06777,2.06732 9.67969,6.04297 2.13522,3.25003 2.63957,5.12354 2.97656,11.07226 0.27888,4.92297 0.2883,4.97636 1.48047,7.46094 1.32819,2.76803 3.16525,5.59932 4.33984,6.68945 l 0.76367,0.70899 -0.80469,1.21875 c -1.302,1.96753 -1.14162,3.55973 0.76758,7.57423 1.02204,2.149 1.57618,3.7034 1.57618,4.4258 0,1.1132 -0.002,1.1117 -0.60157,0.5117 -0.70002,-0.7 -1.01797,-0.7259 -2.85547,-0.2344 -1.08321,0.2897 -1.48997,0.288 -1.96679,-0.01 -0.8358,-0.522 -1.17878,-0.206 -1.17578,1.0879 9.3e-4,0.7085 0.253,1.4223 0.70117,1.9824 0.6579,0.8222 0.67456,0.9302 0.25,1.7813 -0.37458,0.7508 -0.3939,1.1865 -0.10938,2.5429 0.18885,0.9003 0.41912,1.7121 0.51172,1.8047 0.0925,0.093 1.03051,0.2239 2.08399,0.291 1.36539,0.087 2.19344,-0.017 2.88671,-0.3632 0.89637,-0.4472 1.01558,-0.4471 1.51172,0 0.62439,0.565 2.92391,0.8699 3.51953,0.4668 0.33701,-0.2282 0.32179,-0.4041 -0.0879,-1.0293 -0.42507,-0.6488 -0.44298,-0.9558 -0.13281,-2.1875 0.34947,-1.388 0.33431,-1.4539 -0.45508,-2.1329 l -0.81445,-0.7011 1.51172,0 c 0.93051,0 2.71935,0.4047 4.65039,1.0508 4.48227,1.4996 6.78649,1.3993 8.64844,-0.377 0.50193,-0.4788 0.92882,-0.6776 1.08593,-0.5059 0.27534,0.3011 5.22543,14.4743 5.23243,14.9825 0.002,0.165 -0.66956,1.3792 -1.49219,2.6992 -2.5857,4.1492 -3.89296,6.745 -6.04492,12 -3.46941,8.4722 -7.25797,17.3393 -23.00782,53.8496 -31.67362004,73.4239 -41.50328,96.792 -42.55859,101.1641 -0.16904,0.7003 -0.0416,0.9169 0.92578,1.5742 0.61721,0.4194 1.21608,0.7636 1.33203,0.7636 1.26326,0 2.17895,-1.506 25.31055,-41.6582 l 23.68945,-41.123 34.78711,0.064 34.785164,0.066 23.61328,40.9492 c 17.79723,30.8644 23.80398,41.047 24.39258,41.3438 0.89934,0.4533 1.48864,0.311 2.64844,-0.6407 l 0.82812,-0.6777 -0.86523,-2.5371 c -2.60847,-7.6466 -11.86872,-29.5713 -41.8086,-98.9883 -9.07359,-21.0375 -18.37049,-42.7389 -20.660154,-48.2246 -4.54161,-10.881 -5.95974,-13.8685 -8.47461,-17.8535 l -1.66016,-2.6289 2.53711,-7.3828 c 1.39542,-4.0607 2.60641,-7.4952 2.69141,-7.6328 0.085,-0.1376 0.76023,0.1758 1.5,0.6972 2.07336,1.4615 4.17013,1.488 8.294924,0.1035 2.11791,-0.7109 3.75057,-1.0743 4.80078,-1.0683 1.34142,0.01 1.49606,0.063 0.99023,0.3496 -0.95423,0.5411 -1.06043,0.8812 -0.85547,2.7617 0.16112,1.4781 0.10664,1.8359 -0.32617,2.1523 -0.48225,0.3527 -0.47058,0.404 0.15039,0.7364 0.85071,0.4553 2.85685,0.195 3.58594,-0.4649 0.51375,-0.4649 0.61375,-0.4669 1.24414,-0.025 0.77679,0.5441 3.85,0.6632 4.7461,0.1836 1.0611,-0.5679 1.3829,-3.9305 0.48632,-5.0761 -0.24674,-0.3153 -0.23284,-0.4573 0.0508,-0.5528 0.92872,-0.3125 1.71256,-3.3639 0.98047,-3.8164 -0.15831,-0.098 -0.55177,-0.013 -0.87304,0.1875 -0.46149,0.2882 -0.93231,0.28 -2.2461,-0.035 -1.49802,-0.3594 -1.74293,-0.346 -2.4707,0.1309 l -0.80859,0.5293 0.15234,-1.3555 c 0.0862,-0.7643 0.78725,-2.6242 1.60742,-4.2656 1.78761,-3.5777 1.94535,-5.33329 0.65625,-7.28126 l -0.79687,-1.20508 0.61914,-0.55664 c 1.16037,-1.04319 3.25844,-4.24503 4.45703,-6.80274 1.17582,-2.50911 1.20113,-2.63623 1.49219,-7.45312 0.41457,-6.86118 0.7447,-7.98718 3.47851,-11.84571 2.41026,-3.40186 5.64321,-5.27844 9.14649,-5.31054 1.1175,-0.0102 1.97128,-0.11719 1.89648,-0.23828 -0.35556,-0.5753 -3.81989,-2.3928 -5.87891,-3.08399 -4.54206,-1.52472 -7.67805,-0.90585 -10.63476,2.09571 l -1.83985,1.86718 -1.17187,-0.3125 c -1.85283,-0.49455 -3.34127,-0.0572 -4.8125,1.41406 -0.70659,0.70658 -1.28516,1.41493 -1.28516,1.57422 0,0.15928 0.74344,0.80175 1.65235,1.42774 2.78352,1.91708 4.58443,4.86114 5.27539,8.62109 0.36576,1.99047 0.36012,2.02709 -0.59766,3.97266 -0.96951,1.96932 -3.49302,5.49537 -5.66211,7.9082 l -1.16015,1.28906 -1.53516,-3.23828 c -0.84444,-1.78194 -1.90324,-4.32062 -2.35156,-5.64062 -1.85319,-5.45643 -0.58096,-12.22604 3.22265,-17.15625 2.50596,-3.24817 7.78059,-6.83036 12.39063,-8.41406 2.11662,-0.72714 2.8634,-0.83008 6.03125,-0.83008 3.56298,0 3.64842,0.0162 5.84961,1.10547 2.93862,1.45413 4.56915,2.89393 5.55273,4.90429 1.0464,2.13876 0.94562,4.36881 -0.31054,6.85156 -1.21185,2.39514 -1.47746,2.5493 -2.42774,1.41993 -0.64671,-0.76857 -1.00181,-0.93164 -2.03906,-0.93164 -1.47543,0 -2.12224,0.38764 -4.54102,2.72656 -2.01204,1.9456 -3.12228,2.49367 -4.46289,2.19922 -0.9003,-0.19774 -0.90535,-0.1936 -0.4375,0.51172 1.10817,1.67064 5.21184,2.87702 8.56836,2.51757 5.23746,-0.56088 9.58494,-5.26344 10.61133,-11.47851 0.82335,-4.9855 -1.7193,-10.65048 -6.0918,-13.57031 -1.87803,-1.25411 -5.43971,-2.53977 -7.96679,-2.875 l -1.49024,-0.19727 -0.17773,-1.8418 c -0.27645,-2.87369 -0.99252,-4.53982 -2.79102,-6.48242 -1.51455,-1.63591 -5.22785,-3.99287 -5.64062,-3.58008 -0.0919,0.092 0.11865,1.30106 0.46875,2.68555 1.13505,4.48844 0.31171,8.20988 -2.48828,11.25586 -0.71604,0.77895 -3.16573,2.97196 -5.44336,4.87305 -2.35332,1.96428 -4.91588,4.42147 -5.9375,5.6914 -3.00351,3.73357 -5.04323,8.41649 -5.72852,13.15625 -0.3111,2.1516 -0.28946,2.8717 0.1582,5.20703 0.71982,3.75485 2.04829,7.69584 3.82813,11.35547 1.27428,2.62011 1.44383,3.15625 1.08203,3.44922 -4.11621,3.33331 -11.615924,8.59761 -12.248054,8.59761 -0.58542,0 -8.07248,3.4563 -10.86132,5.0137 -1.62244,0.9061 -3.7884,2.2815 -4.8125,3.0567 l -1.86133,1.4101 -2.08985,-1.5937 c -2.26131,-1.7248 -9.04025,-5.3083 -13.68554,-7.2344 -1.5942,-0.661 -4.15842,-2.0445 -5.69922,-3.0742 -3.11514,-2.08198 -8.65235,-6.31003 -8.65235,-6.60745 0,-0.10528 0.61028,-1.38926 1.35743,-2.85351 2.08749,-4.09102 4.34929,-11.69344 4.33789,-14.58008 -0.007,-1.783 -1.10048,-6.35391 -2.08985,-8.73047 -1.95798,-4.70327 -4.91014,-8.23656 -11.25586,-13.47852 -3.53796,-2.92259 -5.13109,-4.69675 -6.08008,-6.76953 -1.0634,-2.32282 -1.21654,-5.41763 -0.41992,-8.45898 0.32412,-1.2375 0.53104,-2.30942 0.46094,-2.38281 -0.0195,-0.0204 -0.0501,-0.032 -0.0918,-0.0352 z m 9.01172,63.36918 4.10938,2.9726 c 2.26056,1.6349 5.09869,3.729 6.30664,4.6524 l 2.19531,1.6777 -0.97461,0.7187 c -1.2909,0.9524 -2.64684,1.1735 -4.6875,0.7637 -0.92364,-0.1855 -2.31076,-0.3359 -3.08203,-0.3359 -0.77124,0 -2.02213,0.1862 -2.7793,0.414 l -1.37695,0.4141 0.2793,-0.7344 c 0.46695,-1.2281 0.31485,-3.7828 -0.35352,-5.9121 -0.60588,-1.9302 -0.61342,-2.076 -0.13672,-3.3242 l 0.5,-1.3066 z m 69.664064,0.3652 c 0.86119,0.1 1.14901,1.9816 0.48243,4.3125 -0.62892,2.1992 -0.75796,5.1699 -0.26563,6.0898 0.1708,0.3192 0.27161,0.5671 0.22461,0.5508 -2.35602,-0.8168 -2.95325,-0.8961 -5.18555,-0.6953 -4.41906,0.3975 -5.30215,0.3364 -6.572264,-0.4531 l -1.17188,-0.7285 1.17188,-0.9942 c 0.933544,-0.792 5.313334,-4.0258 10.632814,-7.8496 0.25509,-0.1834 0.48487,-0.2554 0.68359,-0.2324 z m 1.98243,12.5058 1.41015,0.4239 c 1.58514,0.477 1.95238,0.8673 1.83985,1.9531 -0.0617,0.5955 -0.26544,0.7687 -0.99219,0.8398 -1.12314,0.1099 -1.7828,-0.5638 -2.05859,-2.1035 l -0.19922,-1.1133 z m -73.437504,0.016 -0.19922,0.9551 c -0.10956,0.526 -0.39186,1.2596 -0.62695,1.6309 -0.2777,0.4385 -0.72189,0.6758 -1.26954,0.6758 -1.0545,0 -1.24414,-0.1889 -1.24414,-1.2403 0,-0.9122 0.38827,-1.2138 2.19532,-1.709 l 1.14453,-0.3125 z m 36.54101,11.668 c 5.90592,-0.024 9.11625,7.0901 5.17383,11.4629 -0.60777,0.6741 -1.64469,1.4709 -2.30469,1.7715 -3.17976,1.4482 -7.11602,0.1923 -8.84375,-2.8203 -2.67894,-4.6712 0.60392,-10.3924 5.97461,-10.4141 z m 0.002,33.2012 c 0.17397,-0.1815 30.337414,51.5415 30.867184,52.9297 0.0566,0.1483 -13.252314,0.2636 -30.673824,0.2636 -16.92625,0 -30.7754,-0.073 -30.7754,-0.1621 0,-0.2102 30.27766,-52.7137 30.58204,-53.0312 z"
         style="fill:url(#linearGradient4234);fill-opacity:1"
         id="path4172"
         inkscape:connector-curvature="0" />
      <g
         style="font-style:normal;font-variant:normal;font-weight:500;font-stretch:normal;font-size:275.84185791px;line-height:125%;font-family:BodoniFLF;-inkscape-font-specification:'BodoniFLF Medium';letter-spacing:0px;word-spacing:0px;fill:#000000;fill-opacity:1;stroke:none;stroke-width:1px;stroke-linecap:butt;stroke-linejoin:miter;stroke-opacity:1"
         id="text4161">
        <g
           id="g4916"
           transform="translate(8,0)">
          <path
             id="path4904"
             d="m -280.58017,1014.9233 -81.37335,0 0,4.4135 24.27409,0 0,176.5388 -24.27409,0 0,4.4135 81.37335,0 q 19.30893,0 35.30776,-6.6202 15.99883,-6.8961 27.30834,-19.309 11.30952,-12.4129 17.37804,-29.7909 6.34436,-17.6539 6.34436,-39.1695 0,-20.1365 -6.34436,-36.687 -6.34436,-16.8264 -17.92972,-28.6876 -11.30952,-12.137 -27.30834,-18.4814 -15.72299,-6.6202 -34.75608,-6.6202 z m 55.9959,83.5801 0,13.7921 q 0,24.5499 -4.68931,40.8246 -4.41347,15.9988 -12.13705,25.6533 -7.72357,9.3786 -17.92972,13.2404 -10.20614,3.8618 -21.7915,3.8618 l -29.79092,0 0,-176.5388 29.79092,0 q 11.30951,0 21.51566,4.1376 10.20615,3.8618 17.92972,13.2404 7.99942,9.1028 12.41289,24.2741 4.68931,15.1713 4.68931,37.5145 z"
             inkscape:connector-curvature="0" />
          <path
             id="path4906"
             d="m -130.71616,1104.8478 21.7915,0 q 6.06852,0 9.654469,1.9309 3.585944,1.655 5.516837,4.9651 2.206735,3.3101 3.310102,7.9994 1.103368,4.6894 2.206735,10.482 0.827526,3.8618 2.206735,3.8618 1.655051,0 1.655051,-3.5859 l 0,-55.9959 q 0,-3.3101 -1.655051,-3.3101 -1.379209,0 -2.206735,3.8618 -1.103367,5.7926 -2.206735,10.4819 -1.103367,4.6894 -3.310102,7.9995 -1.930893,3.3101 -5.516837,5.241 -3.585949,1.655 -9.654469,1.655 l -21.7915,0 0,-81.0975 41.92796,0 q 9.378623,0 15.722985,4.6893 6.344363,4.4135 10.206149,11.3095 3.861786,6.6202 5.516837,14.3438 1.930893,7.4477 2.206735,13.5163 0,3.8617 2.206735,3.8617 1.930893,0 1.930893,-3.5859 l 0,-41.928 q 0,-6.6202 -6.896046,-6.6202 l -123.301308,0 0,4.4135 23.7224,0 0,176.5388 -23.44656,0 0,4.4135 129.645672,0 q 7.999414,0 7.999414,-8.827 l 0,-41.3763 q 0,-6.6202 -2.206735,-6.6202 -1.930893,0 -3.03426,5.7927 -2.206735,10.482 -4.689312,19.0331 -2.482576,8.5511 -6.620204,14.8955 -4.137628,6.0685 -10.481991,9.3786 -6.344363,3.3101 -15.998828,3.3101 l -44.410536,0 0,-91.0278 z"
             inkscape:connector-curvature="0" />
        </g>
        <g
           id="g4912"
           transform="translate(-14,0)">
          <path
             id="path4908"
             d="m 344.23182,1149.2583 q -2.20674,10.482 -4.68931,19.0331 -2.48258,8.5511 -6.62021,14.8955 -4.13763,6.0685 -10.48199,9.3786 -6.34436,3.3101 -15.99883,3.3101 l -56.54758,0 0,-176.5388 26.20498,0 0,-4.4135 -76.68404,0 0,4.4135 23.7224,0 0,176.5388 -23.7224,0 0,4.4135 142.05856,0 q 7.99941,0 7.99941,-8.827 l 0,-41.3763 q 0,-6.6202 -2.20673,-6.6202 -1.93089,0 -3.03426,5.7927 z"
             inkscape:connector-curvature="0" />
          <path
             id="path4910"
             d="m 480.9416,1012.9924 -7.99941,10.2062 q -4.96515,-2.7584 -9.37862,-4.9652 -4.41347,-2.2067 -9.10278,-3.5859 -4.41347,-1.3792 -9.65447,-1.9309 -4.96515,-0.8275 -11.58536,-0.8275 -13.51625,0 -24.27408,4.4134 -10.48199,4.4135 -17.92972,11.8612 -7.44773,7.4478 -11.30952,17.1022 -3.86178,9.6545 -3.86178,20.4123 0,14.6197 8.82694,26.7567 9.10278,12.137 28.13587,18.4814 9.10278,3.0343 15.44714,4.9652 6.34436,1.9308 11.8612,3.8617 5.51684,1.6551 11.03367,3.8618 5.79268,1.9309 13.24041,5.5169 9.37863,4.4134 12.68873,12.4128 3.3101,7.7236 3.3101,15.723 0,9.9303 -3.86179,18.2056 -3.86178,7.9994 -10.20614,13.5162 -6.34437,5.5169 -14.61962,8.5511 -8.27526,3.0343 -16.82636,3.0343 -9.9303,0 -19.03308,-3.3101 -9.10279,-3.5859 -16.82636,-9.9303 -7.72357,-6.3444 -13.51625,-15.723 -5.51684,-9.3786 -8.5511,-20.964 -0.82752,-3.5859 -3.03426,-3.5859 -1.93089,0 -1.93089,3.8618 l 0,49.3757 q 0,3.5859 2.48258,3.5859 1.65505,0 3.58594,-2.7584 l 9.93031,-14.3438 q 3.3101,3.0343 7.99941,6.3444 4.96516,3.3101 10.75783,6.0685 6.06853,2.7584 12.68873,4.4135 6.89605,1.9309 14.06793,1.9309 13.24041,0 24.54993,-4.9652 11.30952,-4.6893 19.58477,-13.2404 8.27526,-8.5511 12.96457,-20.1365 4.96515,-11.8612 4.96515,-25.3774 0,-18.4814 -8.82694,-31.1701 -8.55109,-12.9646 -27.30834,-18.4814 -6.34436,-1.9309 -11.8612,-3.3101 -5.51684,-1.3793 -11.30952,-3.0343 -5.79268,-1.6551 -12.13704,-3.586 -6.34436,-2.2067 -14.06793,-5.2409 -8.5511,-3.3102 -12.96457,-10.2062 -4.41347,-6.896 -4.41347,-15.9988 0,-8.5511 3.58594,-14.8955 3.58595,-6.6202 9.10279,-10.7578 5.79267,-4.1376 12.96456,-6.0685 7.44773,-2.2068 14.89546,-2.2068 11.30952,0 19.86062,3.8618 8.55109,3.8618 14.34377,10.2062 5.79268,6.3443 9.10278,14.6196 3.58595,8.2752 4.68932,17.1022 0.27584,2.7584 2.48257,2.7584 1.9309,0 1.9309,-2.7584 l 0,-49.0999 q 0,-2.7584 -1.65506,-2.7584 -1.3792,0 -3.03426,2.2067 z"
             inkscape:connector-curvature="0" />
        </g>
      </g>
    </g>
  </g>
</svg>
