<?xml version="1.0" encoding="UTF-8" standalone="no"?>
<!-- Created with Inkscape (http://www.inkscape.org/) -->

<svg
   xmlns:dc="http://purl.org/dc/elements/1.1/"
   xmlns:cc="http://creativecommons.org/ns#"
   xmlns:rdf="http://www.w3.org/1999/02/22-rdf-syntax-ns#"
   xmlns:svg="http://www.w3.org/2000/svg"
   xmlns="http://www.w3.org/2000/svg"
   xmlns:sodipodi="http://sodipodi.sourceforge.net/DTD/sodipodi-0.dtd"
   xmlns:inkscape="http://www.inkscape.org/namespaces/inkscape"
   width="119.57837mm"
   height="54.406761mm"
   viewBox="0 0 423.70288 192.77986"
   id="svg2"
   version="1.1"
   inkscape:version="0.91 r13725"
   sodipodi:docname="logo2.svg">
  <defs
     id="defs4" />
  <sodipodi:namedview
     id="base"
     pagecolor="#ffffff"
     bordercolor="#666666"
     borderopacity="1.0"
     inkscape:pageopacity="0.0"
     inkscape:pageshadow="2"
     inkscape:zoom="0.7"
     inkscape:cx="321.28037"
     inkscape:cy="19.479738"
     inkscape:document-units="px"
     inkscape:current-layer="g4236"
     showgrid="false"
     inkscape:snap-bbox="true"
     inkscape:bbox-paths="true"
     inkscape:bbox-nodes="true"
     inkscape:snap-bbox-edge-midpoints="true"
     fit-margin-top="0"
     fit-margin-left="0"
     fit-margin-right="0"
     fit-margin-bottom="0"
     inkscape:window-width="1230"
     inkscape:window-height="1400"
     inkscape:window-x="745"
     inkscape:window-y="38"
     inkscape:window-maximized="0"
     showguides="false"
     inkscape:guide-bbox="true"
     inkscape:object-paths="true"
     inkscape:snap-bbox-midpoints="true"
     inkscape:snap-intersection-paths="true"
     inkscape:object-nodes="true"
     inkscape:snap-smooth-nodes="true">
    <sodipodi:guide
       position="275.86146,609.88137"
       orientation="0,1"
       id="guide4272" />
    <sodipodi:guide
       position="289.04995,605.80532"
       orientation="-0.95837184,0.28552304"
       id="guide4274" />
    <sodipodi:guide
       position="294.04668,607.80559"
       orientation="0.95506073,-0.29641018"
       id="guide4276" />
    <sodipodi:guide
       position="284.00595,616.25153"
       orientation="0,1"
       id="guide4278" />
    <inkscape:grid
       type="xygrid"
       id="grid4280"
       originx="-59.999996"
       originy="423.40143" />
  </sodipodi:namedview>
  <metadata
     id="metadata7">
    <rdf:RDF>
      <cc:Work
         rdf:about="">
        <dc:format>image/svg+xml</dc:format>
        <dc:type
           rdf:resource="http://purl.org/dc/dcmitype/StillImage" />
        <dc:title></dc:title>
      </cc:Work>
    </rdf:RDF>
  </metadata>
  <g
     inkscape:label="Layer 1"
     inkscape:groupmode="layer"
     id="layer1"
     transform="translate(911.11541,-847.1933)">
    <g
       id="g4236"
       transform="translate(-622,0)">
      <path
         id="path4200"
         d="m -258.95396,1039.9088 c -15.10359,-1.3602 -25.90334,-8.3021 -29.58324,-19.0155 -0.77869,-2.2669 -0.76896,-8.8129 0.0176,-11.85 1.01324,-3.9123 3.08532,-7.1342 5.61534,-8.7314 3.85578,-2.43403 11.24181,-2.88544 16.29248,-0.99577 4.63562,1.73447 7.92268,7.57627 7.61056,13.52577 -0.13892,2.6481 -1.0702,4.8132 -3.84586,8.9412 -2.14743,3.1937 -3.29978,5.5173 -3.30396,6.6622 -0.01,2.7284 6.30885,5.3559 12.84846,5.3428 7.29624,-0.015 12.32054,-2.9398 15.03611,-8.7541 2.45077,-5.2474 2.23165,3.1369 2.33288,-89.2657 l 0.0901,-82.275 -13.50525,0 -13.50526,0 0,-3.15 0,-3.15 42.45,0 42.45,0 0,3.15 0,3.15 -12.6,0 -12.6,0 -0.002,68.775 c -0.002,44.10189 -0.1107,69.74364 -0.30416,71.475 -0.75713,6.7757 -2.54025,13.1244 -5.22408,18.6 -7.35315,15.0022 -20.68275,24.6912 -37.13686,26.994 -3.21929,0.4506 -10.80814,0.7808 -13.13244,0.5715 z"
         style="fill:#000000"
         inkscape:connector-curvature="0" />
      <path
         id="path4182-3"
         d="m -44.349146,849.48846 c -10.43301,-2.09282 -15.43658,-2.27516 -62.126964,-2.28516 l -38.17578,-0.01 0,3.15039 0,3.15039 12.59961,0 12.60157,0 0,79.05078 0,79.04884 -12.60157,0 -12.59961,0 0,3.1504 0,3.1504 38.92578,0 c 38.497384,0 45.609274,-0.1467 53.173834,-1.0567 20.82444,-2.5049 36.49535,-9.3006 48.01367,-20.82419 4.17092999,-4.1728 6.6189,-7.19438 10.34571,-12.76562 10.49187,-15.68445 15.33053,-34.70469 14.22656,-55.93164 -0.7272,-13.98267 -3.4998,-25.07475 -9.01563,-36.07813 -6.47145,-12.90973 -17.18715,-24.68345 -28.83789,-31.68359 -4.43424,-2.66423 -14.86132,-6.98633 -14.86132,-6.98633 -3.690784,-1.90659 -8.218379,-2.4056 -11.66797,-3.07984 z m -42.10159,4.00586 8.32421,0.004 c 8.88639,0.005 15.13732,0.32437 20.89063,1.06641 6.05895,0.78145 14.16016,3.24414 14.16016,3.24414 l 6.36132,2.28516 c 0,0 5.45707,3.2402 7.05274,4.57617 8.32806,6.97266 12.93977,22.72536 14.33789,48.97461 0.44337,8.32452 0.18631,28.51239 -0.46094,36.15039 -1.75596,20.72142 -5.64987,35.38471 -11.9043,44.83791 -2.94447,4.4504 -8.07603,8.87939 -13.33203,11.50579 -3.97599,1.9869 -9.8262,3.7106 -16.03125,4.7266 -2.52114,0.4128 -5.76869,0.5419 -16.27343,0.6484 l -13.125,0.1329 0,-79.07621 0,-79.07617 z"
         style="fill:#000000"
         inkscape:connector-curvature="0"
         sodipodi:nodetypes="cccccccccccccsssssssccccsccssssssccccc" />
      <path
         id="path4184-9"
         d="m 51.18716,1014.8136 0,-3.15 12.6,0 12.6,0 0,-79.06018 0,-79.06016 -17.9679,0.0202 -7.2321,0 0,-3.14518 0,-3.22498 8.14449,0 43.97607,0 31.27974,0 0,3.22162 0,3.14862 -12.6,0 -12.6,0 0,79.05 0,79.04996 12.6,0 12.6,0 0,3.15 0,3.15 -41.7,0 -41.7,0 0,-3.15 z"
         style="fill:#000000"
         inkscape:connector-curvature="0"
         sodipodi:nodetypes="ccccccccccccccccccccccccccc" />
    </g>
  </g>
</svg>
