<?xml version="1.0" encoding="UTF-8" standalone="no"?>
<!-- Created with Inkscape (http://www.inkscape.org/) -->

<svg
   xmlns:dc="http://purl.org/dc/elements/1.1/"
   xmlns:cc="http://creativecommons.org/ns#"
   xmlns:rdf="http://www.w3.org/1999/02/22-rdf-syntax-ns#"
   xmlns:svg="http://www.w3.org/2000/svg"
   xmlns="http://www.w3.org/2000/svg"
   xmlns:xlink="http://www.w3.org/1999/xlink"
   xmlns:sodipodi="http://sodipodi.sourceforge.net/DTD/sodipodi-0.dtd"
   xmlns:inkscape="http://www.inkscape.org/namespaces/inkscape"
   width="171.11154mm"
   height="93.847183mm"
   viewBox="0 0 606.30074 332.52939"
   id="svg2"
   version="1.1"
   inkscape:version="0.91 r13725"
   sodipodi:docname="logo.svg">
  <defs
     id="defs4">
    <linearGradient
       inkscape:collect="always"
       id="linearGradient4228">
      <stop
         style="stop-color:#a86528;stop-opacity:1"
         offset="0"
         id="stop4230" />
      <stop
         id="stop4247"
         offset="0.25"
         style="stop-color:#a86528;stop-opacity:1" />
      <stop
         style="stop-color:#ab6828;stop-opacity:1"
         offset="0.375"
         id="stop4251" />
      <stop
         id="stop4243"
         offset="0.5"
         style="stop-color:#bc7d48;stop-opacity:1" />
      <stop
         style="stop-color:#c68b5a;stop-opacity:1"
         offset="0.625"
         id="stop4249" />
      <stop
         style="stop-color:#ca905a;stop-opacity:1"
         offset="0.75"
         id="stop4245" />
      <stop
         style="stop-color:#be862c;stop-opacity:1"
         offset="1"
         id="stop4232" />
    </linearGradient>
    <linearGradient
       inkscape:collect="always"
       xlink:href="#linearGradient4228"
       id="linearGradient4234"
       x1="-656.14819"
       y1="284.04233"
       x2="-656.14819"
       y2="596.29272"
       gradientUnits="userSpaceOnUse"
       gradientTransform="translate(520,0)" />
  </defs>
  <sodipodi:namedview
     id="base"
     pagecolor="#ffffff"
     bordercolor="#666666"
     borderopacity="1.0"
     inkscape:pageopacity="0.0"
     inkscape:pageshadow="2"
     inkscape:zoom="1.4"
     inkscape:cx="212.96491"
     inkscape:cy="-105.02764"
     inkscape:document-units="px"
     inkscape:current-layer="g4236"
     showgrid="false"
     inkscape:snap-bbox="true"
     inkscape:bbox-paths="true"
     inkscape:bbox-nodes="true"
     inkscape:snap-bbox-edge-midpoints="true"
     fit-margin-top="0"
     fit-margin-left="0"
     fit-margin-right="0"
     fit-margin-bottom="0"
     inkscape:window-width="2560"
     inkscape:window-height="1376"
     inkscape:window-x="0"
     inkscape:window-y="27"
     inkscape:window-maximized="1"
     showguides="false"
     inkscape:guide-bbox="true"
     inkscape:object-paths="true"
     inkscape:snap-bbox-midpoints="true"
     inkscape:snap-intersection-paths="true"
     inkscape:object-nodes="true"
     inkscape:snap-smooth-nodes="true">
    <sodipodi:guide
       position="335.86147,186.47994"
       orientation="0,1"
       id="guide4272" />
    <sodipodi:guide
       position="349.04996,182.40389"
       orientation="-0.95837184,0.28552304"
       id="guide4274" />
    <sodipodi:guide
       position="354.04669,184.40416"
       orientation="0.95506073,-0.29641018"
       id="guide4276" />
    <sodipodi:guide
       position="344.00596,192.8501"
       orientation="0,1"
       id="guide4278" />
    <inkscape:grid
       type="xygrid"
       id="grid4280" />
  </sodipodi:namedview>
  <metadata
     id="metadata7">
    <rdf:RDF>
      <cc:Work
         rdf:about="">
        <dc:format>image/svg+xml</dc:format>
        <dc:type
           rdf:resource="http://purl.org/dc/dcmitype/StillImage" />
        <dc:title></dc:title>
      </cc:Work>
    </rdf:RDF>
  </metadata>
  <g
     inkscape:label="Layer 1"
     inkscape:groupmode="layer"
     id="layer1"
     transform="translate(971.11541,-284.04234)">
    <g
       id="g4236"
       transform="translate(-622,0)">
      <path
         id="path4200"
         d="m -318.95396,616.50734 c -15.10359,-1.36023 -25.90334,-8.30205 -29.58324,-19.01544 -0.77869,-2.26698 -0.76896,-8.81292 0.0176,-11.85001 1.01324,-3.91236 3.08532,-7.13424 5.61534,-8.73138 3.85578,-2.43405 11.24181,-2.88546 16.29248,-0.99579 4.63562,1.73442 7.92268,7.57626 7.61056,13.52572 -0.13892,2.64807 -1.0702,4.8132 -3.84586,8.9412 -2.14743,3.19371 -3.29978,5.51733 -3.30396,6.66225 -0.01,2.72835 6.30885,5.3559 12.84846,5.34279 7.29624,-0.0147 12.32054,-2.93979 15.03611,-8.75412 2.45077,-5.24736 2.23165,3.13689 2.33288,-89.26567 l 0.0901,-82.275 -13.50525,0 -13.50526,0 0,-3.15 0,-3.15 42.45,0 42.45,0 0,3.15 0,3.15 -12.6,0 -12.6,0 -0.002,68.775 c -0.002,44.10189 -0.1107,69.74364 -0.30416,71.475 -0.75713,6.77568 -2.54025,13.12437 -5.22408,18.60001 -7.35315,15.00213 -20.68275,24.69114 -37.13686,26.99397 -3.21929,0.45057 -10.80814,0.78081 -13.13244,0.57147 z"
         style="fill:#000000"
         inkscape:connector-curvature="0" />
      <path
         id="path4184"
         d="m -13.25395,591.3419 0,-3.15001 12.6,0 12.6,0 0,-79.06014 0,-79.06016 c -2.13903,0.0567 -6.3705478,0.0202 -6.3705478,0.0202 l -4.9347422,15.9 c -3.6495782,11.75913 -5.04882,15.88252 -5.52219,16.273 -1.03089,0.85033 -2.97252,0.0668 -2.97252,-1.19956 0,-0.34008 7.79566255,-27.10387 8.81508999,-30.28976 0.0436784,-0.1365 0.18775631,-0.68368 0.18775631,-0.68368 l -7.1707463,0 -7.2321,0 0,-3.14518 0,-3.22498 8.14449,0 8.14446,0 4.01529,-13.7298 c 2.1965887,-7.51097 4.73478,-16.10057 5.61414,-19.09571 l 1.59882,-5.44571 -1.70412,0.64571 c -0.93726,0.35514 -9.61044,3.68321 -19.27371,7.39571 l -17.56962,6.75 -3.78765,11.85 c -5.82159,18.21335 -6.06933,18.94447 -6.51498,19.22668 -1.2084,0.76521 -2.96712,-0.11049 -2.96712,-1.47738 0,-0.35941 1.76271,-6.60733 3.9171,-13.88427 2.15442,-7.27694 3.85656,-13.29137 3.78252,-13.3654 -0.074,-0.074 -1.92465,0.54826 -4.11252,1.38288 -2.18784,0.83462 -4.29498,1.51749 -4.68249,1.51749 -1.50852,0 -2.46651,-2.12491 -1.52961,-3.3928 0.20625,-0.27911 2.98413,-1.57531 6.1731,-2.88043 3.18894,-1.30513 5.87481,-2.44969 5.96862,-2.54348 0.0938,-0.0938 5.69706,-18.83716 12.45174,-41.65192 8.69808,-29.37886 12.46302,-41.67697 12.90435,-42.15178 2.17988999,-2.34521 6.31281,0.0565 5.42745,3.15403 -0.1755,0.614 -5.87559,18.38665 -12.66687,39.49476 -6.79131,21.10811 -12.3108,38.46505 -12.26559,38.57097 0.0708,0.16587 38.15568,-15.32285 38.48379,-15.65093 0.0663,-0.0663 5.6649,-19.01561 12.44127,-42.10951 6.77637,-23.0939 12.53139,-42.56289 12.78891,-43.26442 0.59475,-1.62012 1.39557,-2.1745 3.14118,-2.1745 1.57644,0 2.80902,0.87609 3.15132,2.23989 0.14514,0.57827 -1.50597,6.25364 -6.13872,21.10057 -3.48549,11.17025 -9.22287,29.55705 -12.74979,40.85955 -3.52689,11.3025 -6.38205,20.58571 -6.34479,20.62935 0.0373,0.0436 5.18454,-2.03587 11.4384,-4.62116 6.25383,-2.58529 12.04563,-4.82162 12.87063,-4.96961 4.07016,-0.73013 4.84821,-0.60905 5.51685,0.85849 0.81315,1.78463 0.16803,3.16056 -2.00331,4.27283 -3.45021,1.7674 -7.04073,6.08215 -10.51011,12.6301 -3.61893,6.83021 -6.35343,15.50494 -6.35343,20.15514 0,2.06633 0.59124,1.86129 2.76072,-0.95739 2.1759,-2.82701 5.04102,-8.56087 7.56864,-15.14677 1.07631,-2.80446 2.18832,-5.26821 2.47113,-5.475 1.15833,-0.84699 3.54687,-0.0386 3.88674,1.3155 0.10773,0.42931 -0.0382,2.79901 -0.32421,5.26601 -0.28605,2.46699 -0.45477,4.55076 -0.37491,4.63061 0.0798,0.0798 0.7602,-0.97606 1.51191,-2.34647 1.90164,-3.46682 8.97261,-14.90109 9.88503,-15.98481 1.57209,-1.86727 4.71495,-0.77463 4.71495,1.6392 0,0.60028 -0.41139,2.298 -0.91419,3.7727 -2.44227,7.16314 -5.39475,19.58707 -5.37819,22.63128 l 0.006,1.05 0.60633,-0.75 c 0.33348,-0.4125 2.73522,-3.585 5.33715,-7.05 7.79421,-10.37952 13.73037,-19.24582 19.38255,-28.95 2.93118,-5.0325 5.59887,-9.38625 5.92824,-9.675 0.59622,-0.5227 2.14419,-0.69351 3.06894,-0.33865 0.56697,0.21756 1.36344,1.63976 1.36344,2.43457 0,0.30289 -0.88557,2.84084 -1.96797,5.63989 -2.74464,7.09775 -6.41868,17.3999 -8.23422,23.08919 -0.84249,2.64 -1.59876,4.99838 -1.68066,5.24085 -0.19737,0.58447 -0.21906,0.61078 2.34678,-2.84694 4.13964,-5.57857 7.81038,-9.64107 14.18607,-15.7001 5.1903,-4.93253 6.02181,-5.53822 7.31802,-5.33062 2.58477,0.41398 3.15639,2.65521 1.41489,5.54756 -2.91588,4.84285 -5.58288,11.19533 -5.58288,13.29776 0,0.77696 0.0803,0.85687 0.675,0.67138 2.53503,-0.79068 6.80706,-5.72227 10.11783,-11.67989 1.34682,-2.42357 1.75557,-2.85 2.73189,-2.85 1.11681,0 2.1834,1.32697 1.91862,2.38701 -0.31221,1.24979 -5.03472,8.06013 -7.60209,10.96299 -2.94507,3.3299 -5.07144,4.71326 -7.51665,4.89013 -1.50036,0.10853 -1.81536,0.0289 -2.64393,-0.66828 -0.51735,-0.43532 -1.10238,-1.28158 -1.30005,-1.88059 -0.41124,-1.24602 -0.22752,-4.21531 0.40854,-6.60294 l 0.41604,-1.56167 -0.84153,0.59922 c -0.46284,0.32958 -2.25237,2.11233 -3.97674,3.96168 -6.77592,7.26706 -10.05924,11.52422 -14.00379,18.15744 -1.20852,2.03224 -2.45385,3.8323 -2.76744,4.00012 -0.7452,0.39882 -2.2278,-0.19556 -2.48148,-0.99482 -0.53706,-1.69216 2.41425,-14.60819 5.84487,-25.57927 0.66711,-2.13345 1.18098,-3.90952 1.14192,-3.94683 -0.0391,-0.0373 -2.83851,3.79146 -6.22101,8.50841 -7.42209,10.35019 -12.67671,17.46291 -15.06522,20.3924 -1.72269,2.11291 -1.81173,2.175 -3.11838,2.175 -2.61105,0 -3.60468,-2.11995 -3.30969,-7.06129 0.14859,-2.489 1.08852,-8.97081 1.86897,-12.88871 0.15885,-0.79751 0.073,-0.73542 -0.75444,0.54524 -0.51354,0.79488 -2.13774,3.69738 -3.60936,6.45 -1.47162,2.75262 -2.87727,5.37116 -3.12366,5.81899 -0.53079,0.96482 -1.74,1.34517 -2.77593,0.87317 -0.97326,-0.44344 -1.5804,-1.95957 -1.84659,-4.61127 l -0.2157,-2.14862 -2.06553,3.50143 c -2.27898,3.86328 -4.24554,6.44496 -5.95653,7.81968 -1.41063,1.1334 -3.9033,1.45897 -5.11113,0.66756 -1.4052,-0.92071 -1.85418,-2.36932 -1.81815,-5.86618 0.0273,-2.65005 0.22845,-3.90738 1.26735,-7.92196 1.57338,-6.07991 4.12908,-12.57924 6.77415,-17.22705 0.64287,-1.12962 0.91506,-1.85889 0.67185,-1.8 -0.22488,0.0545 -4.44921,1.64526 -9.38742,3.53512 l -8.97858,3.43612 -6.30276,20.26388 -6.30273,20.34369 31.27974,0 31.27974,0 0,3.22162 0,3.14862 -12.6,0 -12.6,0 0,79.05 0,79.05 12.6,0 12.6,0 0,3.15001 0,3.15 -41.7,0 -41.7,0 0,-3.15 z"
         style="fill:#000000"
         inkscape:connector-curvature="0"
         sodipodi:nodetypes="cccccccscsscscccccsscsscsssscsssscssssscscsssscsscsssssscccssssccsssssssscsssssssscssscsccssccscssssccscsscsssssscsccccccccccccccccccc" />
      <path
         id="path4182"
         d="m 181.86523,338.31641 c -0.64207,-0.0352 -1.21048,0.18054 -1.72656,0.65039 -1.11651,1.0165 -22.69336,37.79491 -22.69336,38.68164 0,1.06652 0.93447,1.80592 2.13477,1.68945 0.93897,-0.0911 1.25653,-0.50435 6.10351,-7.96484 2.81193,-4.32818 5.2755,-8.10856 5.47461,-8.40039 0.41268,-0.60484 0.50192,-0.93532 -1.3789,5.16992 -4.24599,13.78253 -8.51579,30.38119 -10.98047,42.6914 -0.45819,2.28801 -0.46035,2.55181 -0.0195,3.22461 0.34653,0.52885 0.75058,0.73152 1.44922,0.72852 0.53244,-0.003 1.11305,-0.10339 1.29101,-0.22461 0.17796,-0.12123 2.28088,-4.20281 4.67383,-9.07031 5.42406,-11.03302 10.15172,-19.68321 13.36133,-24.44922 l 1.61719,-2.40039 -0.19336,1.65039 c -0.36831,3.14623 -1.39692,7.62749 -2.43555,10.61133 -1.81152,5.20435 -2.37765,6.06673 -6.24609,9.52539 -1.99047,1.77963 -3.55504,3.42104 -3.66016,3.83984 -0.10527,0.41945 0.004,1.05987 0.25586,1.50195 0.39135,0.68667 0.6184,0.76714 2.07226,0.74024 1.05618,-0.0196 2.10184,-0.27134 2.9668,-0.71289 1.70619,-0.87097 4.42764,-3.58648 5.88477,-5.875 0.64068,-1.00625 3.89881,-4.5601 7.48828,-8.16797 l 6.35351,-6.38672 -1.27148,5.03711 c -2.80716,11.11417 -2.91212,15.16978 -0.42383,16.54883 2.7366,1.51666 6.25597,-2.03313 15.1543,-15.28906 2.26092,-3.36809 4.01369,-5.85344 3.89648,-5.52344 -0.11721,0.33 -3.31994,9.51039 -7.11914,20.40039 -3.79917,10.89 -7.01839,19.91445 -7.15234,20.05664 -0.13509,0.1434 -1.95736,-0.0851 -4.09375,-0.51367 -10.43301,-2.09282 -15.43658,-2.27516 -62.12696,-2.28516 l -38.17578,-0.01 0,3.15039 0,3.15039 12.59961,0 12.60157,0 0,79.05078 0,79.04883 -12.60157,0 -12.59961,0 0,3.15039 0,3.15039 38.92578,-0.004 c 38.49738,-0.004 45.60927,-0.14671 53.17383,-1.05664 20.82444,-2.50491 36.49535,-9.30062 48.01367,-20.82422 4.17093,-4.17282 6.6189,-7.19438 10.34571,-12.76562 10.49187,-15.68445 15.33053,-34.70469 14.22656,-55.93164 -0.7272,-13.98267 -3.4998,-25.07475 -9.01563,-36.07813 -6.47145,-12.90973 -17.18715,-24.68345 -28.83789,-31.68359 -4.43424,-2.66423 -8.27197,-4.46845 -14.86132,-6.98633 -0.67803,-0.25909 -0.67559,-0.26406 0.7207,-2.88867 6.11472,-11.49388 9.80273,-17.36342 20.32031,-32.33203 6.85275,-9.75283 10.13936,-15.21042 10.02344,-16.64649 -0.0655,-0.81185 -0.27533,-1.14004 -0.93164,-1.45312 -1.39935,-0.66753 -2.1398,-0.24952 -3.33008,1.8789 -1.6827,3.00898 -5.47238,8.63508 -9.85937,14.63477 -5.42283,7.41635 -9.50893,13.34883 -12.66211,18.38672 -1.44582,2.31 -2.73233,4.31507 -2.85938,4.45508 -0.12705,0.14002 3.14821,-9.98302 7.2793,-22.49415 7.27233,-22.02446 7.49594,-22.77325 7.04297,-23.5625 -0.45598,-0.93029 -1.22698,-0.8651 -1.92774,-0.75781 -0.69801,0.14175 -1.22148,0.82765 -3.16797,4.16407 -6.70836,11.49858 -15.3798,24.26629 -19.21875,28.29492 l -1.71679,1.80078 0.19531,-1.5 c 0.46248,-3.55929 2.92789,-11.68691 5.70898,-18.82031 0.88668,-2.27427 1.61329,-4.53133 1.61329,-5.01563 0,-1.40149 -1.19149,-2.55078 -2.64454,-2.55078 -1.24125,0 -2.45703,0.75522 -2.45703,1.52734 0,0.21906 -2.61462,3.06602 -5.8125,6.32618 l -5.81445,5.92773 0.73828,-3.14844 c 0.96018,-4.08573 1.1232,-9.8276 0.32031,-11.29492 -2.13147,-3.89537 -6.42581,-2.55036 -10.21679,3.19922 -1.39695,2.11867 -5.66961,10.61637 -7.57422,15.0625 -0.47436,1.10733 -0.90599,1.96911 -0.95899,1.91601 -0.21732,-0.2173 7.89714,-26.64331 8.92578,-29.06836 0.15423,-0.36354 1.28171,-3.49593 2.50586,-6.96093 1.22415,-3.465 3.11743,-8.62001 4.20703,-11.45508 1.08961,-2.83507 1.98047,-5.37376 1.98047,-5.64063 0,-0.8609 -0.8326,-2.12793 -1.64062,-2.49609 -0.44253,-0.20163 -0.85499,-0.31289 -1.24024,-0.33398 z m -31.31835,91.77539 8.32421,0.004 c 8.88639,0.005 15.13732,0.32437 20.89063,1.06641 6.05895,0.78145 13.9075,2.57974 14.16016,3.24414 0.14019,0.36868 -5.26845,15.87678 -8.43555,24.18555 -2.65878,6.97523 -8.24024,23.85603 -8.24024,24.92187 0,2.02519 2.56095,3.26341 4.38477,2.1211 0.88578,-0.55482 1.19531,-1.37574 5.95508,-15.83789 5.5245,-16.7857 11.7831,-33.10547 12.69726,-33.10547 0.46377,0 5.45707,3.2402 7.05274,4.57617 8.32806,6.97266 12.93977,22.72536 14.33789,48.97461 0.44337,8.32452 0.18631,28.51239 -0.46094,36.15039 -1.75596,20.72142 -5.64987,35.38471 -11.9043,44.83789 -2.94447,4.45041 -8.07603,8.87942 -13.33203,11.50586 -3.97599,1.98681 -9.8262,3.71052 -16.03125,4.72656 -2.52114,0.41283 -5.76869,0.54194 -16.27343,0.64844 l -13.125,0.13281 0,-79.07617 0,-79.07617 z"
         style="fill:#000000"
         inkscape:connector-curvature="0"
         sodipodi:nodetypes="csscssscsccscccsscccsscccssssssccccccccccccsssssssssscsssscsccscccsssssccsssccssssccccscsscssssssssccccc" />
      <path
         id="path4178"
         d="m 66.73652,355.97011 c -0.94746,-0.74526 -1.0242,-1.90285 -0.33039,-4.98461 0.69411,-3.08305 1.02132,-3.71646 2.16732,-4.19529 1.83297,-0.76586 3.9726,0.55465 3.9726,2.45175 0,1.12145 -1.91934,6.04121 -2.60409,6.67493 -0.91086,0.84297 -2.17476,0.86395 -3.20544,0.0532 z"
         style="fill:#000000"
         inkscape:connector-curvature="0" />
      <path
         d="m -51.67578,284.04297 c -1.70922,0.01 -3.36547,0.13168 -4.74805,0.37305 -14.26989,2.4912 -26.39431,13.7132 -30.02929,27.79687 -1.34478,5.21034 -1.38366,10.92093 -0.10743,15.72852 0.72471,2.73015 2.87189,6.98825 4.69727,9.3164 3.77568,4.81566 9.37829,8.11007 15.76367,9.26563 17.77086,3.21601 36.91862,-10.54227 40.88867,-29.38086 0.71415,-3.38886 0.7811,-9.31025 0.14063,-12.31641 -2.12979,-9.99658 -9.02799,-17.37972 -18.63281,-19.93945 -2.12709,-0.56688 -5.12396,-0.85991 -7.97266,-0.84375 z m -0.64258,7.02148 c 2.1565,-5.3e-4 4.28141,0.22805 5.90039,0.68555 9.51706,2.6894 15.34458,11.04369 14.77344,21.17969 -0.18279,3.24403 -0.66754,5.4007 -1.91602,8.52734 -3.49563,8.75449 -11.67294,15.81348 -20.65429,17.82617 -9.52083,2.13359 -18.46929,-1.19638 -23.0586,-8.58203 -6.46044,-10.39695 -2.69626,-25.38138 8.50782,-33.87109 2.55885,-1.93894 7.34155,-4.28338 10.36132,-5.07813 1.7415,-0.45835 3.92944,-0.68696 6.08594,-0.6875 z m -168.19531,-7.01953 c -2.84745,-0.0177 -5.85472,0.27006 -7.99024,0.82813 -3.04903,0.79677 -7.2618,2.90118 -9.67382,4.83203 -4.09582,3.27874 -7.49919,8.7804 -8.80665,14.23633 -0.77539,3.23568 -0.91079,8.72745 -0.29882,12.15039 2.68552,15.02084 15.50475,27.81119 30.5332,30.46484 3.30929,0.58434 9.44155,0.36859 12.54688,-0.44141 4.67139,-1.2185 9.53678,-4.06269 12.54296,-7.33007 3.05604,-3.32155 5.37491,-7.91914 6.33008,-12.55469 0.66254,-3.21555 0.6196,-8.95591 -0.0918,-12.38867 -3.05165,-14.72569 -15.55152,-26.84032 -30.36132,-29.42578 -1.37087,-0.23933 -3.022,-0.36045 -4.73047,-0.3711 z m 0.70898,7.05469 c 5.43449,0.0328 10.24978,1.58684 15.18555,4.90234 2.40097,1.61279 6.35015,5.57645 7.90625,7.93555 5.49768,8.33473 6.43926,17.19431 2.66016,25.02734 -2.487,5.15491 -7.40291,9.07045 -13.00196,10.35547 -10.06807,2.31071 -21.15629,-2.18903 -27.96289,-11.3457 -3.57333,-4.80707 -5.29128,-9.5536 -5.55078,-15.3418 -0.19323,-4.31008 0.42031,-7.3193 2.23242,-10.9414 1.65973,-3.31751 5.10684,-6.71225 8.48242,-8.35547 3.69664,-1.79951 5.77755,-2.26203 10.04883,-2.23633 z m 39.76953,41.47461 c -0.62592,-0.0472 -3.62045,1.76942 -4.99804,3.07226 -2.07171,1.95934 -3.0964,4.0343 -3.32227,6.72852 l -0.17383,2.07031 -2.6914,0.52735 c -7.2117,1.41426 -11.78057,5.71835 -12.88086,12.13476 -0.96546,5.63013 2.42352,12.41267 7.33008,14.66797 1.64247,0.75496 2.21291,0.85747 4.73828,0.85547 2.67612,-0.002 3.00999,-0.0718 4.94922,-1.04492 1.22913,-0.61676 2.12098,-1.26284 2.17968,-1.58008 0.0801,-0.43327 -0.0423,-0.50172 -0.63281,-0.35352 -1.11573,0.28003 -2.61413,-0.50396 -4.26953,-2.23437 -1.96101,-2.04984 -3.09748,-2.72656 -4.58203,-2.72656 -0.99774,0 -1.35699,0.17245 -2.02539,0.96679 l -0.8125,0.96485 -0.71485,-0.89063 c -0.39399,-0.48987 -0.98568,-1.60412 -1.31445,-2.47656 -1.68306,-4.46613 0.2943,-8.21926 5.69922,-10.81836 1.99824,-0.96092 2.56344,-1.09258 5.12109,-1.19531 4.49925,-0.18072 8.58254,1.13141 13.30664,4.27539 3.61989,2.40909 6.28583,5.2299 7.67969,8.125 2.51967,5.23344 2.88444,9.43937 1.23438,14.25 -0.53763,1.56744 -1.60447,4.17904 -2.36914,5.80469 l -1.38868,2.95507 -1.59375,-1.7539 c -2.0793,-2.29173 -4.96506,-6.55369 -5.64648,-8.33789 -0.46311,-1.2127 -0.49134,-1.66381 -0.20508,-3.20313 0.68184,-3.66634 2.72756,-6.92103 5.46875,-8.69726 0.82203,-0.53267 1.49606,-1.08202 1.4961,-1.21875 0,-0.13674 -0.48837,-0.78799 -1.08399,-1.44727 -1.40175,-1.55157 -2.90347,-2.02665 -5.01562,-1.58984 -1.30656,0.27021 -1.59309,0.24853 -1.81446,-0.13672 -0.65484,-1.13961 -2.35924,-2.70575 -3.64453,-3.34766 -1.7352,-0.86661 -4.60808,-1.13415 -6.7832,-0.63281 -1.88136,0.43364 -5.43707,2.07665 -6.66602,3.08008 l -0.85742,0.69922 2.08594,0.0195 c 3.8115,0.0349 7.06777,2.06732 9.67969,6.04297 2.13522,3.25003 2.63957,5.12354 2.97656,11.07226 0.27888,4.92297 0.2883,4.97636 1.48047,7.46094 1.32819,2.76803 3.16525,5.59932 4.33984,6.68945 l 0.76367,0.70899 -0.80469,1.21875 c -1.302,1.96753 -1.14162,3.55972 0.76758,7.57422 1.02204,2.14906 1.57618,3.70342 1.57618,4.42578 0,1.11321 -0.002,1.11172 -0.60157,0.51172 -0.70002,-0.70001 -1.01797,-0.72584 -2.85547,-0.23438 -1.08321,0.28968 -1.48997,0.28801 -1.96679,-0.01 -0.8358,-0.52196 -1.17878,-0.20603 -1.17578,1.08789 9.3e-4,0.70853 0.253,1.4223 0.70117,1.98242 0.6579,0.82219 0.67456,0.9302 0.25,1.78125 -0.37458,0.75087 -0.3939,1.1865 -0.10938,2.54297 0.18885,0.90027 0.41912,1.71208 0.51172,1.80468 0.0925,0.0926 1.03051,0.22392 2.08399,0.29102 1.36539,0.087 2.19344,-0.0174 2.88671,-0.36328 0.89637,-0.44717 1.01558,-0.44707 1.51172,0.002 0.62439,0.56507 2.92391,0.86999 3.51953,0.4668 0.33701,-0.22812 0.32179,-0.40407 -0.0879,-1.0293 -0.42507,-0.64874 -0.44298,-0.95575 -0.13281,-2.1875 0.34947,-1.38791 0.33431,-1.45381 -0.45508,-2.13281 l -0.81445,-0.70117 1.51172,0 c 0.93051,0 2.71935,0.4047 4.65039,1.05078 4.48227,1.49964 6.78649,1.39939 8.64844,-0.37696 0.50193,-0.4788 0.92882,-0.67763 1.08593,-0.50585 0.27534,0.30105 5.22543,14.47429 5.23243,14.98242 0.002,0.165 -0.66956,1.37922 -1.49219,2.69922 -2.5857,4.14918 -3.89296,6.74497 -6.04492,12 -3.46941,8.47225 -7.25797,17.33927 -23.00782,53.84961 -31.67362,73.42386 -41.50328,96.79201 -42.55859,101.16406 -0.16904,0.70032 -0.0416,0.91692 0.92578,1.57422 0.61721,0.41943 1.21608,0.76367 1.33203,0.76367 1.26326,0 2.17895,-1.506 25.31055,-41.6582 l 23.68945,-41.12305 34.78711,0.0645 34.78516,0.0664 23.61328,40.94922 c 17.79723,30.86442 23.80398,41.04702 24.39258,41.34375 0.89934,0.45336 1.48864,0.311 2.64844,-0.64063 l 0.82812,-0.67773 -0.86523,-2.53711 c -2.60847,-7.64658 -11.86872,-29.57134 -41.8086,-98.98828 -9.07359,-21.0375 -18.37049,-42.73891 -20.66015,-48.22461 -4.54161,-10.88104 -5.95974,-13.86852 -8.47461,-17.85352 l -1.66016,-2.6289 2.53711,-7.38282 c 1.39542,-4.06066 2.60641,-7.49521 2.69141,-7.63281 0.085,-0.1376 0.76023,0.17582 1.5,0.69727 2.07336,1.46143 4.17013,1.48799 8.29492,0.10351 2.11791,-0.71089 3.75057,-1.07436 4.80078,-1.06836 1.34142,0.008 1.49606,0.0628 0.99023,0.34961 -0.95423,0.54112 -1.06043,0.88126 -0.85547,2.76172 0.16112,1.47809 0.10664,1.83586 -0.32617,2.15234 -0.48225,0.35265 -0.47058,0.404 0.15039,0.73633 0.85071,0.45529 2.85685,0.19499 3.58594,-0.46484 0.51375,-0.4649 0.61375,-0.46692 1.24414,-0.0254 0.77679,0.54408 3.85,0.66317 4.7461,0.18359 1.0611,-0.56788 1.3829,-3.93057 0.48632,-5.07617 -0.24674,-0.31522 -0.23284,-0.45723 0.0508,-0.55273 0.92872,-0.31252 1.71256,-3.36396 0.98047,-3.81641 -0.15831,-0.0978 -0.55177,-0.0131 -0.87304,0.1875 -0.46149,0.28815 -0.93231,0.28002 -2.2461,-0.0352 -1.49802,-0.35937 -1.74293,-0.34599 -2.4707,0.13086 l -0.80859,0.5293 0.15234,-1.35547 c 0.0862,-0.76433 0.78725,-2.62417 1.60742,-4.26562 1.78761,-3.57764 1.94535,-5.33328 0.65625,-7.28125 l -0.79687,-1.20508 0.61914,-0.55664 c 1.16037,-1.04319 3.25844,-4.24503 4.45703,-6.80274 1.17582,-2.50911 1.20113,-2.63623 1.49219,-7.45312 0.41457,-6.86118 0.7447,-7.98718 3.47851,-11.84571 2.41026,-3.40186 5.64321,-5.27844 9.14649,-5.31054 1.1175,-0.0102 1.97128,-0.11719 1.89648,-0.23828 -0.35556,-0.5753 -3.81989,-2.3928 -5.87891,-3.08399 -4.54206,-1.52472 -7.67805,-0.90585 -10.63476,2.09571 l -1.83985,1.86718 -1.17187,-0.3125 c -1.85283,-0.49455 -3.34127,-0.0572 -4.8125,1.41406 -0.70659,0.70658 -1.28516,1.41493 -1.28516,1.57422 0,0.15928 0.74344,0.80175 1.65235,1.42774 2.78352,1.91708 4.58443,4.86114 5.27539,8.62109 0.36576,1.99047 0.36012,2.02709 -0.59766,3.97266 -0.96951,1.96932 -3.49302,5.49537 -5.66211,7.9082 l -1.16015,1.28906 -1.53516,-3.23828 c -0.84444,-1.78194 -1.90324,-4.32062 -2.35156,-5.64062 -1.85319,-5.45643 -0.58096,-12.22604 3.22265,-17.15625 2.50596,-3.24817 7.78059,-6.83036 12.39063,-8.41406 2.11662,-0.72714 2.8634,-0.83008 6.03125,-0.83008 3.56298,0 3.64842,0.0162 5.84961,1.10547 2.93862,1.45413 4.56915,2.89393 5.55273,4.90429 1.0464,2.13876 0.94562,4.36881 -0.31054,6.85156 -1.21185,2.39514 -1.47746,2.5493 -2.42774,1.41993 -0.64671,-0.76857 -1.00181,-0.93164 -2.03906,-0.93164 -1.47543,0 -2.12224,0.38764 -4.54102,2.72656 -2.01204,1.9456 -3.12228,2.49367 -4.46289,2.19922 -0.9003,-0.19774 -0.90535,-0.1936 -0.4375,0.51172 1.10817,1.67064 5.21184,2.87702 8.56836,2.51757 5.23746,-0.56088 9.58494,-5.26344 10.61133,-11.47851 0.82335,-4.9855 -1.7193,-10.65048 -6.0918,-13.57031 -1.87803,-1.25411 -5.43971,-2.53977 -7.96679,-2.875 l -1.49024,-0.19727 -0.17773,-1.8418 c -0.27645,-2.87369 -0.99252,-4.53982 -2.79102,-6.48242 -1.51455,-1.63591 -5.22785,-3.99287 -5.64062,-3.58008 -0.0919,0.092 0.11865,1.30106 0.46875,2.68555 1.13505,4.48844 0.31171,8.20988 -2.48828,11.25586 -0.71604,0.77895 -3.16573,2.97196 -5.44336,4.87305 -2.35332,1.96428 -4.91588,4.42147 -5.9375,5.6914 -3.00351,3.73357 -5.04323,8.41649 -5.72852,13.15625 -0.3111,2.1516 -0.28946,2.8717 0.1582,5.20703 0.71982,3.75485 2.04829,7.69584 3.82813,11.35547 1.27428,2.62011 1.44383,3.15625 1.08203,3.44922 -4.11621,3.33331 -11.61592,8.59766 -12.24805,8.59766 -0.58542,0 -8.07248,3.45622 -10.86132,5.01367 -1.62244,0.90609 -3.7884,2.28151 -4.8125,3.05664 l -1.86133,1.41016 -2.08985,-1.59375 c -2.26131,-1.72474 -9.04025,-5.30829 -13.68554,-7.23438 -1.5942,-0.66101 -4.15842,-2.04444 -5.69922,-3.07422 -3.11514,-2.08195 -8.65235,-6.31 -8.65235,-6.60742 0,-0.10528 0.61028,-1.38926 1.35743,-2.85351 2.08749,-4.09102 4.34929,-11.69344 4.33789,-14.58008 -0.007,-1.783 -1.10048,-6.35391 -2.08985,-8.73047 -1.95798,-4.70327 -4.91014,-8.23656 -11.25586,-13.47852 -3.53796,-2.92259 -5.13109,-4.69675 -6.08008,-6.76953 -1.0634,-2.32282 -1.21654,-5.41763 -0.41992,-8.45898 0.32412,-1.2375 0.53104,-2.30942 0.46094,-2.38281 -0.0195,-0.0204 -0.0501,-0.032 -0.0918,-0.0352 z m 9.01172,63.36914 4.10938,2.97266 c 2.26056,1.63488 5.09869,3.729 6.30664,4.65234 l 2.19531,1.67773 -0.97461,0.71875 c -1.2909,0.95238 -2.64684,1.17351 -4.6875,0.76368 -0.92364,-0.18549 -2.31076,-0.33594 -3.08203,-0.33594 -0.77124,0 -2.02213,0.18618 -2.7793,0.41406 l -1.37695,0.41406 0.2793,-0.73437 c 0.46695,-1.22816 0.31485,-3.78278 -0.35352,-5.91211 -0.60588,-1.93025 -0.61342,-2.07599 -0.13672,-3.32422 l 0.5,-1.30664 z m 69.66406,0.36523 c 0.86119,0.0996 1.14901,1.98164 0.48243,4.3125 -0.62892,2.19923 -0.75796,5.16996 -0.26563,6.08985 0.1708,0.31915 0.27161,0.56708 0.22461,0.55078 -2.35602,-0.8168 -2.95325,-0.8961 -5.18555,-0.69531 -4.41906,0.3975 -5.30215,0.33637 -6.57226,-0.45313 l -1.17188,-0.72851 1.17188,-0.99415 c 0.93354,-0.79203 5.31333,-4.02577 10.63281,-7.8496 0.25509,-0.18337 0.48487,-0.25542 0.68359,-0.23243 z m 1.98243,12.50586 1.41015,0.42383 c 1.58514,0.47706 1.95238,0.86731 1.83985,1.95313 -0.0617,0.59547 -0.26544,0.76874 -0.99219,0.83984 -1.12314,0.1099 -1.7828,-0.5638 -2.05859,-2.10352 l -0.19922,-1.11328 z m -73.4375,0.0156 -0.19922,0.95508 c -0.10956,0.52594 -0.39186,1.25961 -0.62695,1.63086 -0.2777,0.43847 -0.72189,0.67578 -1.26954,0.67578 -1.0545,0 -1.24414,-0.18882 -1.24414,-1.24024 0,-0.91226 0.38827,-1.21378 2.19532,-1.70898 l 1.14453,-0.3125 z m 36.54101,11.66797 c 5.90592,-0.0239 9.11625,7.09011 5.17383,11.46289 -0.60777,0.67412 -1.64469,1.47089 -2.30469,1.77148 -3.17976,1.44818 -7.11602,0.19234 -8.84375,-2.82031 -2.67894,-4.67118 0.60392,-10.39236 5.97461,-10.41406 z m 0.002,33.20117 c 0.17397,-0.18149 30.33741,51.54147 30.86718,52.92969 0.0566,0.14835 -13.25231,0.26367 -30.67382,0.26367 -16.92625,0 -30.7754,-0.0735 -30.7754,-0.16211 0,-0.21027 30.27766,-52.71374 30.58204,-53.03125 z"
         style="fill:url(#linearGradient4234);fill-opacity:1"
         id="path4172"
         inkscape:connector-curvature="0" />
    </g>
  </g>
</svg>
