<?xml version="1.0" encoding="UTF-8" standalone="no"?>
<!-- Created with Inkscape (http://www.inkscape.org/) -->

<svg
   xmlns:dc="http://purl.org/dc/elements/1.1/"
   xmlns:cc="http://creativecommons.org/ns#"
   xmlns:rdf="http://www.w3.org/1999/02/22-rdf-syntax-ns#"
   xmlns:svg="http://www.w3.org/2000/svg"
   xmlns="http://www.w3.org/2000/svg"
   xmlns:sodipodi="http://sodipodi.sourceforge.net/DTD/sodipodi-0.dtd"
   xmlns:inkscape="http://www.inkscape.org/namespaces/inkscape"
   width="171.11154mm"
   height="93.847183mm"
   viewBox="0 0 606.30074 332.52939"
   id="svg2"
   version="1.1"
   inkscape:version="0.91 r13725"
   sodipodi:docname="thing2.svg">
  <defs
     id="defs4" />
  <sodipodi:namedview
     id="base"
     pagecolor="#ffffff"
     bordercolor="#666666"
     borderopacity="1.0"
     inkscape:pageopacity="0.0"
     inkscape:pageshadow="2"
     inkscape:zoom="0.98994949"
     inkscape:cx="397.12371"
     inkscape:cy="225.79307"
     inkscape:document-units="px"
     inkscape:current-layer="g4236"
     showgrid="false"
     inkscape:snap-bbox="true"
     inkscape:bbox-paths="true"
     inkscape:bbox-nodes="true"
     inkscape:snap-bbox-edge-midpoints="true"
     fit-margin-top="0"
     fit-margin-left="0"
     fit-margin-right="0"
     fit-margin-bottom="0"
     inkscape:window-width="1271"
     inkscape:window-height="1158"
     inkscape:window-x="547"
     inkscape:window-y="38"
     inkscape:window-maximized="0"
     showguides="false"
     inkscape:guide-bbox="true"
     inkscape:object-paths="true"
     inkscape:snap-bbox-midpoints="true"
     inkscape:snap-intersection-paths="true"
     inkscape:object-nodes="true"
     inkscape:snap-smooth-nodes="true">
    <sodipodi:guide
       position="335.86147,186.47994"
       orientation="0,1"
       id="guide4272" />
    <sodipodi:guide
       position="349.04996,182.40389"
       orientation="-0.95837184,0.28552304"
       id="guide4274" />
    <sodipodi:guide
       position="354.04669,184.40416"
       orientation="0.95506073,-0.29641018"
       id="guide4276" />
    <sodipodi:guide
       position="344.00596,192.8501"
       orientation="0,1"
       id="guide4278" />
    <inkscape:grid
       type="xygrid"
       id="grid4280" />
  </sodipodi:namedview>
  <metadata
     id="metadata7">
    <rdf:RDF>
      <cc:Work
         rdf:about="">
        <dc:format>image/svg+xml</dc:format>
        <dc:type
           rdf:resource="http://purl.org/dc/dcmitype/StillImage" />
        <dc:title></dc:title>
      </cc:Work>
    </rdf:RDF>
  </metadata>
  <g
     inkscape:label="Layer 1"
     inkscape:groupmode="layer"
     id="layer1"
     transform="translate(971.11541,-284.04234)">
    <g
       id="g4236"
       transform="translate(-622,0)">
      <path
         id="path4184"
         d="m 5.5755022,430.09179 -4.9347422,15.9 c -3.6495771,11.75913 -5.04882,15.88252 -5.52219,16.273 -1.03089,0.85033 -2.97252,0.0668 -2.97252,-1.19956 0,-0.34008 7.79566255,-27.10387 8.81508999,-30.28976 0.0436784,-0.1365 0.18775631,-0.68368 0.18775631,-0.68368 L 3.035,423.72163 7.05029,409.99183 c 2.1965886,-7.51097 4.73478,-16.10057 5.61414,-19.09571 l 1.59882,-5.44571 -1.70412,0.64571 c -0.93726,0.35514 -9.61044,3.68321 -19.27371,7.39571 l -17.56962,6.75 -3.78765,11.85 c -5.82159,18.21335 -6.06933,18.94447 -6.51498,19.22668 -1.2084,0.76521 -2.96712,-0.11049 -2.96712,-1.47738 0,-0.35941 1.76271,-6.60733 3.9171,-13.88427 2.15442,-7.27694 3.85656,-13.29137 3.78252,-13.3654 -0.074,-0.074 -1.92465,0.54826 -4.11252,1.38288 -2.18784,0.83462 -4.29498,1.51749 -4.68249,1.51749 -1.50852,0 -2.46651,-2.12491 -1.52961,-3.3928 0.20625,-0.27911 2.98413,-1.57531 6.1731,-2.88043 3.18894,-1.30513 5.87481,-2.44969 5.96862,-2.54348 0.0938,-0.0938 5.69706,-18.83716 12.45174,-41.65192 8.69808,-29.37886 12.46302,-41.67697 12.90435,-42.15178 2.17988999,-2.34521 6.31281,0.0565 5.42745,3.15403 -0.1755,0.614 -5.87559,18.38665 -12.66687,39.49476 -6.79131,21.10811 -12.3108,38.46505 -12.26559,38.57097 0.0708,0.16587 38.15568,-15.32285 38.48379,-15.65093 0.0663,-0.0663 5.6649,-19.01561 12.44127,-42.10951 6.77637,-23.0939 12.53139,-42.56289 12.78891,-43.26442 0.59475,-1.62012 1.39557,-2.1745 3.14118,-2.1745 1.57644,0 2.80902,0.87609 3.15132,2.23989 0.14514,0.57827 -1.50597,6.25364 -6.13872,21.10057 -3.48549,11.17025 -9.22287,29.55705 -12.74979,40.85955 -3.52689,11.3025 -6.38205,20.58571 -6.34479,20.62935 0.0373,0.0436 5.18454,-2.03587 11.4384,-4.62116 6.25383,-2.58529 12.04563,-4.82162 12.87063,-4.96961 4.07016,-0.73013 4.84821,-0.60905 5.51685,0.85849 0.81315,1.78463 0.16803,3.16056 -2.00331,4.27283 -3.45021,1.7674 -7.04073,6.08215 -10.51011,12.6301 -3.61893,6.83021 -6.35343,15.50494 -6.35343,20.15514 0,2.06633 0.59124,1.86129 2.76072,-0.95739 2.1759,-2.82701 5.04102,-8.56087 7.56864,-15.14677 1.07631,-2.80446 2.18832,-5.26821 2.47113,-5.475 1.15833,-0.84699 3.54687,-0.0386 3.88674,1.3155 0.10773,0.42931 -0.0382,2.79901 -0.32421,5.26601 -0.28605,2.46699 -0.45477,4.55076 -0.37491,4.63061 0.0798,0.0798 0.7602,-0.97606 1.51191,-2.34647 1.90164,-3.46682 8.97261,-14.90109 9.88503,-15.98481 1.57209,-1.86727 4.71495,-0.77463 4.71495,1.6392 0,0.60028 -0.41139,2.298 -0.91419,3.7727 -2.44227,7.16314 -5.39475,19.58707 -5.37819,22.63128 l 0.006,1.05 0.60633,-0.75 c 0.33348,-0.4125 2.73522,-3.585 5.33715,-7.05 7.79421,-10.37952 13.73037,-19.24582 19.38255,-28.95 2.93118,-5.0325 5.59887,-9.38625 5.92824,-9.675 0.59622,-0.5227 2.14419,-0.69351 3.06894,-0.33865 0.56697,0.21756 1.36344,1.63976 1.36344,2.43457 0,0.30289 -0.88557,2.84084 -1.96797,5.63989 -2.74464,7.09775 -6.41868,17.3999 -8.23422,23.08919 -0.84249,2.64 -1.59876,4.99838 -1.68066,5.24085 -0.19737,0.58447 -0.21906,0.61078 2.34678,-2.84694 4.13964,-5.57857 7.81038,-9.64107 14.18607,-15.7001 5.1903,-4.93253 6.02181,-5.53822 7.31802,-5.33062 2.58477,0.41398 3.15639,2.65521 1.41489,5.54756 -2.91588,4.84285 -5.58288,11.19533 -5.58288,13.29776 0,0.77696 0.0803,0.85687 0.675,0.67138 2.53503,-0.79068 6.80706,-5.72227 10.11783,-11.67989 1.34682,-2.42357 1.75557,-2.85 2.73189,-2.85 1.11681,0 2.1834,1.32697 1.91862,2.38701 -0.31221,1.24979 -5.03472,8.06013 -7.60209,10.96299 -2.94507,3.3299 -5.07144,4.71326 -7.51665,4.89013 -1.50036,0.10853 -1.81536,0.0289 -2.64393,-0.66828 -0.51735,-0.43532 -1.10238,-1.28158 -1.30005,-1.88059 -0.41124,-1.24602 -0.22752,-4.21531 0.40854,-6.60294 l 0.41604,-1.56167 -0.84153,0.59922 c -0.46284,0.32958 -2.25237,2.11233 -3.97674,3.96168 -6.77592,7.26706 -10.05924,11.52422 -14.00379,18.15744 -1.20852,2.03224 -2.45385,3.8323 -2.76744,4.00012 -0.7452,0.39882 -2.2278,-0.19556 -2.48148,-0.99482 -0.53706,-1.69216 2.41425,-14.60819 5.84487,-25.57927 0.66711,-2.13345 1.18098,-3.90952 1.14192,-3.94683 -0.0391,-0.0373 -2.83851,3.79146 -6.22101,8.50841 -7.42209,10.35019 -12.67671,17.46291 -15.06522,20.3924 -1.72269,2.11291 -1.81173,2.175 -3.11838,2.175 -2.61105,0 -3.60468,-2.11995 -3.30969,-7.06129 0.14859,-2.489 1.08852,-8.97081 1.86897,-12.88871 0.15885,-0.79751 0.073,-0.73542 -0.75444,0.54524 -0.51354,0.79488 -2.13774,3.69738 -3.60936,6.45 -1.47162,2.75262 -2.87727,5.37116 -3.12366,5.81899 -0.53079,0.96482 -1.74,1.34517 -2.77593,0.87317 -0.97326,-0.44344 -1.5804,-1.95957 -1.84659,-4.61127 l -0.2157,-2.14862 -2.06553,3.50143 c -2.27898,3.86328 -4.24554,6.44496 -5.95653,7.81968 -1.41063,1.1334 -3.9033,1.45897 -5.11113,0.66756 -1.4052,-0.92071 -1.85418,-2.36932 -1.81815,-5.86618 0.0273,-2.65005 0.22845,-3.90738 1.26735,-7.92196 1.57338,-6.07991 4.12908,-12.57924 6.77415,-17.22705 0.64287,-1.12962 0.91506,-1.85889 0.67185,-1.8 -0.22488,0.0545 -4.44921,1.64526 -9.38742,3.53512 l -8.97858,3.43612 -6.30276,20.26388 -6.30273,20.34369 z"
         style="fill:#000000"
         inkscape:connector-curvature="0"
         sodipodi:nodetypes="cscssccsscsscsssscsssscssssscscsssscsscsssssscccssssccsssssssscsssssssscssscsccssccscssssccscsscsssssscscccc" />
      <path
         id="path4182"
         d="m 205.03714,426.27311 c 6.11472,-11.49388 9.80273,-17.36342 20.32031,-32.33203 6.85275,-9.75283 10.13936,-15.21042 10.02344,-16.64649 -0.0655,-0.81185 -0.27533,-1.14004 -0.93164,-1.45312 -1.39935,-0.66753 -2.1398,-0.24952 -3.33008,1.8789 -1.6827,3.00898 -5.47238,8.63508 -9.85937,14.63477 -5.42283,7.41635 -9.50893,13.34883 -12.66211,18.38672 -1.44582,2.31 -2.73233,4.31507 -2.85938,4.45508 -0.12705,0.14002 3.14821,-9.98302 7.2793,-22.49415 7.27233,-22.02446 7.49594,-22.77325 7.04297,-23.5625 -0.45598,-0.93029 -1.22698,-0.8651 -1.92774,-0.75781 -0.69801,0.14175 -1.22148,0.82765 -3.16797,4.16407 -6.70836,11.49858 -15.3798,24.26629 -19.21875,28.29492 l -1.71679,1.80078 0.19531,-1.5 c 0.46248,-3.55929 2.92789,-11.68691 5.70898,-18.82031 0.88668,-2.27427 1.61329,-4.53133 1.61329,-5.01563 0,-1.40149 -1.19149,-2.55078 -2.64454,-2.55078 -1.24125,0 -2.45703,0.75522 -2.45703,1.52734 0,0.21906 -2.61462,3.06602 -5.8125,6.32618 l -5.81445,5.92773 0.73828,-3.14844 c 0.96018,-4.08573 1.1232,-9.8276 0.32031,-11.29492 -2.13147,-3.89537 -6.42581,-2.55036 -10.21679,3.19922 -1.39695,2.11867 -5.66961,10.61637 -7.57422,15.0625 -0.47436,1.10733 -0.90599,1.96911 -0.95899,1.91601 -0.21732,-0.2173 7.89714,-26.64331 8.92578,-29.06836 0.15423,-0.36354 1.28171,-3.49593 2.50586,-6.96093 1.22415,-3.465 3.11743,-8.62001 4.20703,-11.45508 1.08961,-2.83507 1.98047,-5.37376 1.98047,-5.64063 0,-0.8609 -0.8326,-2.12793 -1.64062,-2.49609 -0.44253,-0.20163 -0.85499,-0.31289 -1.24024,-0.33398 l -3e-5,3.3e-4 c -0.64207,-0.0352 -1.21048,0.18054 -1.72656,0.65039 -1.11651,1.0165 -22.69336,37.79491 -22.69336,38.68164 0,1.06652 0.93447,1.80592 2.13477,1.68945 0.93897,-0.0911 1.25653,-0.50435 6.10351,-7.96484 2.81193,-4.32818 5.2755,-8.10856 5.47461,-8.40039 0.41268,-0.60484 0.50192,-0.93532 -1.3789,5.16992 -4.24599,13.78253 -8.51579,30.38119 -10.98047,42.6914 -0.45819,2.28801 -0.46035,2.55181 -0.0195,3.22461 0.34653,0.52885 0.75058,0.73152 1.44922,0.72852 0.53244,-0.003 1.11305,-0.10339 1.29101,-0.22461 0.17796,-0.12123 2.28088,-4.20281 4.67383,-9.07031 5.42406,-11.03302 10.15172,-19.68321 13.36133,-24.44922 l 1.61719,-2.40039 -0.19336,1.65039 c -0.36831,3.14623 -1.39692,7.62749 -2.43555,10.61133 -1.81152,5.20435 -2.37765,6.06673 -6.24609,9.52539 -1.99047,1.77963 -3.55504,3.42104 -3.66016,3.83984 -0.10527,0.41945 0.004,1.05987 0.25586,1.50195 0.39135,0.68667 0.6184,0.76714 2.07226,0.74024 1.05618,-0.0196 2.10184,-0.27134 2.9668,-0.71289 1.70619,-0.87097 4.42764,-3.58648 5.88477,-5.875 0.64068,-1.00625 3.89881,-4.5601 7.48828,-8.16797 l 6.35351,-6.38672 -1.27148,5.03711 c -2.80716,11.11417 -2.91212,15.16978 -0.42383,16.54883 2.7366,1.51666 6.25597,-2.03313 15.1543,-15.28906 2.26092,-3.36809 4.01369,-5.85344 3.89648,-5.52344 -0.11721,0.33 -3.31994,9.51039 -7.11914,20.40039 -3.79917,10.89 -7.01839,19.91445 -7.15234,20.05664 l -2.82034,7.80674 c 0.14019,0.36868 -5.26845,15.87678 -8.43555,24.18555 -2.65878,6.97523 -8.24024,23.85603 -8.24024,24.92187 0,2.02519 2.56095,3.26341 4.38477,2.1211 0.88578,-0.55482 1.19531,-1.37574 5.95508,-15.83789 5.5245,-16.7857 11.7831,-33.10547 12.69726,-33.10547 0,0 3.35765,-7.79379 4.75394,-10.4184 z"
         style="fill:#000000"
         inkscape:connector-curvature="0"
         sodipodi:nodetypes="cscsssscsccscccsssssccsssccssssccsscssscsccscccsscccsscccssssccsscscc" />
      <path
         id="path4178"
         d="m 66.73652,355.97011 c -0.94746,-0.74526 -1.0242,-1.90285 -0.33039,-4.98461 0.69411,-3.08305 1.02132,-3.71646 2.16732,-4.19529 1.83297,-0.76586 3.9726,0.55465 3.9726,2.45175 0,1.12145 -1.91934,6.04121 -2.60409,6.67493 -0.91086,0.84297 -2.17476,0.86395 -3.20544,0.0532 z"
         style="fill:#000000"
         inkscape:connector-curvature="0" />
    </g>
  </g>
</svg>
